<svg width="70" height="70" viewBox="30 0 130 63"  xmlns="http://www.w3.org/2000/svg">
<path d="M86.03 25.905C90.95 19.745 97.62 15.025 105.29 12.515L93.63 0.855C92.49 -0.285 90.64 -0.285 89.5 0.855L73.68 16.665C78.37 18.975 82.55 22.125 86.03 25.905Z" fill="#F8D20B"/>
<path d="M83.09 30.095C79.51 25.945 75.02 22.625 69.93 20.455L64.78 25.575C63.64 26.715 63 28.255 63 29.865V59.085C63 60.695 64.31 62.005 65.92 62.005H78.31C77.47 58.725 77 55.245 77 51.655C76.99 43.755 79.24 36.385 83.09 30.095Z" fill="#31B44A"/>
<path d="M109.31 16.535C93.6 20.515 81.98 34.715 81.98 51.655C81.98 55.275 82.52 58.715 83.49 62.005H88.11C93.64 49.015 105.7 39.405 120.16 37.325V29.865C120.16 28.255 119.52 26.715 118.38 25.575L109.31 16.535Z" fill="#81C341"/>
<path d="M93.6 61.995H117.24C118.85 61.995 120.16 60.685 120.16 59.075V42.375C108.47 44.285 98.69 51.785 93.6 61.995Z" fill="#009444"/>
</svg>

